<mxfile host="app.diagrams.net" modified="2024-07-06T14:39:35.099Z" agent="Mozilla/5.0 (Windows NT 10.0; Win64; x64) AppleWebKit/537.36 (KHTML, like Gecko) Chrome/126.0.0.0 Safari/537.36" etag="TmDAibM9EsOykVcAIure" version="24.6.4" type="device">
  <diagram name="Seite-1" id="QWHAsBCS7nOVS9yWHLHI">
    <mxGraphModel dx="3243" dy="1132" grid="1" gridSize="10" guides="1" tooltips="1" connect="1" arrows="1" fold="1" page="1" pageScale="1" pageWidth="1169" pageHeight="827" math="0" shadow="0">
      <root>
        <mxCell id="0" />
        <mxCell id="1" parent="0" />
        <mxCell id="Voh2ad0PcZWmAyjDrMkV-1" value="ab41: Einzelabteilung" style="shape=umlLifeline;perimeter=lifelinePerimeter;whiteSpace=wrap;html=1;container=1;dropTarget=0;collapsible=0;recursiveResize=0;outlineConnect=0;portConstraint=eastwest;newEdgeStyle={&quot;curved&quot;:0,&quot;rounded&quot;:0};fontSize=12;" vertex="1" parent="1">
          <mxGeometry x="1095" y="700" width="100" height="1500" as="geometry" />
        </mxCell>
        <mxCell id="Voh2ad0PcZWmAyjDrMkV-2" value="ab40: Einzelabteilung" style="shape=umlLifeline;perimeter=lifelinePerimeter;whiteSpace=wrap;html=1;container=1;dropTarget=0;collapsible=0;recursiveResize=0;outlineConnect=0;portConstraint=eastwest;newEdgeStyle={&quot;curved&quot;:0,&quot;rounded&quot;:0};fontSize=12;" vertex="1" parent="1">
          <mxGeometry x="935" y="580" width="100" height="1620" as="geometry" />
        </mxCell>
        <mxCell id="Voh2ad0PcZWmAyjDrMkV-3" value="ab31: Einzelabteilung" style="shape=umlLifeline;perimeter=lifelinePerimeter;whiteSpace=wrap;html=1;container=1;dropTarget=0;collapsible=0;recursiveResize=0;outlineConnect=0;portConstraint=eastwest;newEdgeStyle={&quot;curved&quot;:0,&quot;rounded&quot;:0};fontSize=12;" vertex="1" parent="1">
          <mxGeometry x="775" y="480" width="100" height="1720" as="geometry" />
        </mxCell>
        <mxCell id="Voh2ad0PcZWmAyjDrMkV-4" value="ab30: Einzelabteilung" style="shape=umlLifeline;perimeter=lifelinePerimeter;whiteSpace=wrap;html=1;container=1;dropTarget=0;collapsible=0;recursiveResize=0;outlineConnect=0;portConstraint=eastwest;newEdgeStyle={&quot;curved&quot;:0,&quot;rounded&quot;:0};fontSize=12;" vertex="1" parent="1">
          <mxGeometry x="615" y="380" width="100" height="1820" as="geometry" />
        </mxCell>
        <mxCell id="Voh2ad0PcZWmAyjDrMkV-5" value="ab4: Abteilungsgruppe" style="shape=umlLifeline;perimeter=lifelinePerimeter;whiteSpace=wrap;html=1;container=1;dropTarget=0;collapsible=0;recursiveResize=0;outlineConnect=0;portConstraint=eastwest;newEdgeStyle={&quot;curved&quot;:0,&quot;rounded&quot;:0};fontSize=12;" vertex="1" parent="1">
          <mxGeometry x="455" y="270" width="100" height="1930" as="geometry" />
        </mxCell>
        <mxCell id="Voh2ad0PcZWmAyjDrMkV-6" value="ab3: Abteilungsgruppe" style="shape=umlLifeline;perimeter=lifelinePerimeter;whiteSpace=wrap;html=1;container=1;dropTarget=0;collapsible=0;recursiveResize=0;outlineConnect=0;portConstraint=eastwest;newEdgeStyle={&quot;curved&quot;:0,&quot;rounded&quot;:0};fontSize=12;" vertex="1" parent="1">
          <mxGeometry x="295" y="180" width="100" height="2020" as="geometry" />
        </mxCell>
        <mxCell id="Voh2ad0PcZWmAyjDrMkV-7" value="ab: Abteilungsgruppe" style="shape=umlLifeline;perimeter=lifelinePerimeter;whiteSpace=wrap;html=1;container=1;dropTarget=0;collapsible=0;recursiveResize=0;outlineConnect=0;portConstraint=eastwest;newEdgeStyle={&quot;curved&quot;:0,&quot;rounded&quot;:0};fontSize=12;" vertex="1" parent="1">
          <mxGeometry x="135" y="80" width="100" height="2120" as="geometry" />
        </mxCell>
        <mxCell id="Voh2ad0PcZWmAyjDrMkV-8" value="c:Client" style="shape=umlLifeline;perimeter=lifelinePerimeter;whiteSpace=wrap;html=1;container=1;dropTarget=0;collapsible=0;recursiveResize=0;outlineConnect=0;portConstraint=eastwest;newEdgeStyle={&quot;curved&quot;:0,&quot;rounded&quot;:0};fontSize=12;" vertex="1" parent="1">
          <mxGeometry x="-25" y="40" width="100" height="2160" as="geometry" />
        </mxCell>
        <mxCell id="Voh2ad0PcZWmAyjDrMkV-9" value="&lt;b style=&quot;&quot;&gt;&lt;font style=&quot;font-size: 20px;&quot;&gt;Synchrones Sequenzdiagramm&lt;/font&gt;&lt;/b&gt;" style="text;html=1;align=center;verticalAlign=middle;resizable=0;points=[];autosize=1;strokeColor=none;fillColor=none;fontSize=12;" vertex="1" parent="1">
          <mxGeometry x="575" y="40" width="320" height="40" as="geometry" />
        </mxCell>
        <mxCell id="Voh2ad0PcZWmAyjDrMkV-10" value="" style="endArrow=classic;html=1;rounded=0;fontSize=12;" edge="1" parent="1">
          <mxGeometry width="50" height="50" relative="1" as="geometry">
            <mxPoint x="25" y="110" as="sourcePoint" />
            <mxPoint x="135" y="110" as="targetPoint" />
          </mxGeometry>
        </mxCell>
        <mxCell id="Voh2ad0PcZWmAyjDrMkV-11" value="new(&quot;AB&quot;)" style="text;html=1;align=center;verticalAlign=middle;resizable=0;points=[];autosize=1;strokeColor=none;fillColor=none;fontSize=12;" vertex="1" parent="1">
          <mxGeometry x="35" y="88" width="80" height="30" as="geometry" />
        </mxCell>
        <mxCell id="Voh2ad0PcZWmAyjDrMkV-12" value="" style="endArrow=open;html=1;rounded=0;dashed=1;endFill=0;fontSize=12;" edge="1" parent="1">
          <mxGeometry width="50" height="50" relative="1" as="geometry">
            <mxPoint x="184.5" y="160" as="sourcePoint" />
            <mxPoint x="24.5" y="160" as="targetPoint" />
          </mxGeometry>
        </mxCell>
        <mxCell id="Voh2ad0PcZWmAyjDrMkV-13" value="Return()" style="text;html=1;align=center;verticalAlign=middle;resizable=0;points=[];autosize=1;strokeColor=none;fillColor=none;fontSize=12;" vertex="1" parent="1">
          <mxGeometry x="40" y="138" width="70" height="30" as="geometry" />
        </mxCell>
        <mxCell id="Voh2ad0PcZWmAyjDrMkV-14" value="" style="endArrow=classic;html=1;rounded=0;fontSize=12;" edge="1" parent="1">
          <mxGeometry width="50" height="50" relative="1" as="geometry">
            <mxPoint x="25" y="200" as="sourcePoint" />
            <mxPoint x="295" y="200" as="targetPoint" />
          </mxGeometry>
        </mxCell>
        <mxCell id="Voh2ad0PcZWmAyjDrMkV-15" value="new(&quot;AB3&quot;)" style="text;html=1;align=center;verticalAlign=middle;resizable=0;points=[];autosize=1;strokeColor=none;fillColor=none;fontSize=12;" vertex="1" parent="1">
          <mxGeometry x="45" y="178" width="80" height="30" as="geometry" />
        </mxCell>
        <mxCell id="Voh2ad0PcZWmAyjDrMkV-16" value="" style="endArrow=open;html=1;rounded=0;dashed=1;endFill=0;fontSize=12;" edge="1" parent="1">
          <mxGeometry width="50" height="50" relative="1" as="geometry">
            <mxPoint x="345" y="240" as="sourcePoint" />
            <mxPoint x="25" y="240" as="targetPoint" />
          </mxGeometry>
        </mxCell>
        <mxCell id="Voh2ad0PcZWmAyjDrMkV-17" value="Return()" style="text;html=1;align=center;verticalAlign=middle;resizable=0;points=[];autosize=1;strokeColor=none;fillColor=none;fontSize=12;" vertex="1" parent="1">
          <mxGeometry x="65" y="218" width="70" height="30" as="geometry" />
        </mxCell>
        <mxCell id="Voh2ad0PcZWmAyjDrMkV-18" value="" style="endArrow=classic;html=1;rounded=0;fontSize=12;" edge="1" parent="1">
          <mxGeometry width="50" height="50" relative="1" as="geometry">
            <mxPoint x="24.5" y="290" as="sourcePoint" />
            <mxPoint x="455" y="290" as="targetPoint" />
          </mxGeometry>
        </mxCell>
        <mxCell id="Voh2ad0PcZWmAyjDrMkV-19" value="new(&quot;AB4&quot;)" style="text;html=1;align=center;verticalAlign=middle;resizable=0;points=[];autosize=1;strokeColor=none;fillColor=none;fontSize=12;" vertex="1" parent="1">
          <mxGeometry x="65" y="268" width="80" height="30" as="geometry" />
        </mxCell>
        <mxCell id="Voh2ad0PcZWmAyjDrMkV-20" value="" style="endArrow=open;html=1;rounded=0;dashed=1;endFill=0;fontSize=12;" edge="1" parent="1">
          <mxGeometry width="50" height="50" relative="1" as="geometry">
            <mxPoint x="504.5" y="340" as="sourcePoint" />
            <mxPoint x="24.5" y="340" as="targetPoint" />
          </mxGeometry>
        </mxCell>
        <mxCell id="Voh2ad0PcZWmAyjDrMkV-21" value="Return()" style="text;html=1;align=center;verticalAlign=middle;resizable=0;points=[];autosize=1;strokeColor=none;fillColor=none;fontSize=12;" vertex="1" parent="1">
          <mxGeometry x="60" y="318" width="70" height="30" as="geometry" />
        </mxCell>
        <mxCell id="Voh2ad0PcZWmAyjDrMkV-22" value="" style="endArrow=classic;html=1;rounded=0;fontSize=12;" edge="1" parent="1" source="Voh2ad0PcZWmAyjDrMkV-8">
          <mxGeometry width="50" height="50" relative="1" as="geometry">
            <mxPoint x="605" y="450" as="sourcePoint" />
            <mxPoint x="615" y="400" as="targetPoint" />
          </mxGeometry>
        </mxCell>
        <mxCell id="Voh2ad0PcZWmAyjDrMkV-23" value="new(&quot;AB30&quot;)" style="text;html=1;align=center;verticalAlign=middle;resizable=0;points=[];autosize=1;strokeColor=none;fillColor=none;fontSize=12;" vertex="1" parent="1">
          <mxGeometry x="70" y="378" width="90" height="30" as="geometry" />
        </mxCell>
        <mxCell id="Voh2ad0PcZWmAyjDrMkV-24" value="" style="endArrow=open;html=1;rounded=0;endFill=0;dashed=1;fontSize=12;" edge="1" parent="1">
          <mxGeometry width="50" height="50" relative="1" as="geometry">
            <mxPoint x="665" y="450" as="sourcePoint" />
            <mxPoint x="25" y="450" as="targetPoint" />
          </mxGeometry>
        </mxCell>
        <mxCell id="Voh2ad0PcZWmAyjDrMkV-25" value="Return()" style="text;html=1;align=center;verticalAlign=middle;resizable=0;points=[];autosize=1;strokeColor=none;fillColor=none;fontSize=12;" vertex="1" parent="1">
          <mxGeometry x="60" y="428" width="70" height="30" as="geometry" />
        </mxCell>
        <mxCell id="Voh2ad0PcZWmAyjDrMkV-26" value="" style="endArrow=classic;html=1;rounded=0;fontSize=12;" edge="1" parent="1">
          <mxGeometry width="50" height="50" relative="1" as="geometry">
            <mxPoint x="25" y="500" as="sourcePoint" />
            <mxPoint x="775" y="500" as="targetPoint" />
          </mxGeometry>
        </mxCell>
        <mxCell id="Voh2ad0PcZWmAyjDrMkV-27" value="new(&quot;AB31&quot;)" style="text;html=1;align=center;verticalAlign=middle;resizable=0;points=[];autosize=1;strokeColor=none;fillColor=none;fontSize=12;" vertex="1" parent="1">
          <mxGeometry x="70" y="476" width="90" height="30" as="geometry" />
        </mxCell>
        <mxCell id="Voh2ad0PcZWmAyjDrMkV-28" value="" style="endArrow=open;html=1;rounded=0;endFill=0;dashed=1;fontSize=12;" edge="1" parent="1">
          <mxGeometry width="50" height="50" relative="1" as="geometry">
            <mxPoint x="824.5" y="550" as="sourcePoint" />
            <mxPoint x="24.5" y="550" as="targetPoint" />
          </mxGeometry>
        </mxCell>
        <mxCell id="Voh2ad0PcZWmAyjDrMkV-29" value="Return()" style="text;html=1;align=center;verticalAlign=middle;resizable=0;points=[];autosize=1;strokeColor=none;fillColor=none;fontSize=12;" vertex="1" parent="1">
          <mxGeometry x="53" y="528" width="70" height="30" as="geometry" />
        </mxCell>
        <mxCell id="Voh2ad0PcZWmAyjDrMkV-30" value="" style="endArrow=classic;html=1;rounded=0;fontSize=12;" edge="1" parent="1" source="Voh2ad0PcZWmAyjDrMkV-8">
          <mxGeometry width="50" height="50" relative="1" as="geometry">
            <mxPoint x="605" y="650" as="sourcePoint" />
            <mxPoint x="935" y="600" as="targetPoint" />
          </mxGeometry>
        </mxCell>
        <mxCell id="Voh2ad0PcZWmAyjDrMkV-31" value="new(&quot;AB40&quot;)" style="text;html=1;align=center;verticalAlign=middle;resizable=0;points=[];autosize=1;strokeColor=none;fillColor=none;fontSize=12;" vertex="1" parent="1">
          <mxGeometry x="50" y="578" width="90" height="30" as="geometry" />
        </mxCell>
        <mxCell id="Voh2ad0PcZWmAyjDrMkV-32" value="" style="endArrow=open;html=1;rounded=0;dashed=1;endFill=0;fontSize=12;" edge="1" parent="1">
          <mxGeometry width="50" height="50" relative="1" as="geometry">
            <mxPoint x="985" y="660" as="sourcePoint" />
            <mxPoint x="25" y="660" as="targetPoint" />
          </mxGeometry>
        </mxCell>
        <mxCell id="Voh2ad0PcZWmAyjDrMkV-33" value="Return()" style="text;html=1;align=center;verticalAlign=middle;resizable=0;points=[];autosize=1;strokeColor=none;fillColor=none;fontSize=12;" vertex="1" parent="1">
          <mxGeometry x="60" y="638" width="70" height="30" as="geometry" />
        </mxCell>
        <mxCell id="Voh2ad0PcZWmAyjDrMkV-34" value="" style="endArrow=classic;html=1;rounded=0;fontSize=12;" edge="1" parent="1">
          <mxGeometry width="50" height="50" relative="1" as="geometry">
            <mxPoint x="24" y="720" as="sourcePoint" />
            <mxPoint x="1095" y="720" as="targetPoint" />
          </mxGeometry>
        </mxCell>
        <mxCell id="Voh2ad0PcZWmAyjDrMkV-35" value="new(&quot;AB41&quot;)" style="text;html=1;align=center;verticalAlign=middle;resizable=0;points=[];autosize=1;strokeColor=none;fillColor=none;fontSize=12;" vertex="1" parent="1">
          <mxGeometry x="50" y="698" width="90" height="30" as="geometry" />
        </mxCell>
        <mxCell id="Voh2ad0PcZWmAyjDrMkV-36" value="" style="endArrow=open;html=1;rounded=0;dashed=1;endFill=0;fontSize=12;" edge="1" parent="1">
          <mxGeometry width="50" height="50" relative="1" as="geometry">
            <mxPoint x="1144" y="770" as="sourcePoint" />
            <mxPoint x="24" y="770" as="targetPoint" />
          </mxGeometry>
        </mxCell>
        <mxCell id="Voh2ad0PcZWmAyjDrMkV-37" value="Return()" style="text;html=1;align=center;verticalAlign=middle;resizable=0;points=[];autosize=1;strokeColor=none;fillColor=none;fontSize=12;" vertex="1" parent="1">
          <mxGeometry x="60" y="748" width="70" height="30" as="geometry" />
        </mxCell>
        <mxCell id="Voh2ad0PcZWmAyjDrMkV-38" value="" style="endArrow=classic;html=1;rounded=0;fontSize=12;" edge="1" parent="1">
          <mxGeometry width="50" height="50" relative="1" as="geometry">
            <mxPoint x="25" y="870" as="sourcePoint" />
            <mxPoint x="345" y="870" as="targetPoint" />
          </mxGeometry>
        </mxCell>
        <mxCell id="Voh2ad0PcZWmAyjDrMkV-39" value="addAbteilung(ab30)" style="text;html=1;align=center;verticalAlign=middle;resizable=0;points=[];autosize=1;strokeColor=none;fillColor=none;fontSize=12;" vertex="1" parent="1">
          <mxGeometry x="40" y="847" width="130" height="30" as="geometry" />
        </mxCell>
        <mxCell id="Voh2ad0PcZWmAyjDrMkV-40" value="" style="endArrow=open;html=1;rounded=0;dashed=1;endFill=0;fontSize=12;" edge="1" parent="1">
          <mxGeometry width="50" height="50" relative="1" as="geometry">
            <mxPoint x="345" y="920" as="sourcePoint" />
            <mxPoint x="25" y="920" as="targetPoint" />
          </mxGeometry>
        </mxCell>
        <mxCell id="Voh2ad0PcZWmAyjDrMkV-41" value="Return()" style="text;html=1;align=center;verticalAlign=middle;resizable=0;points=[];autosize=1;strokeColor=none;fillColor=none;fontSize=12;" vertex="1" parent="1">
          <mxGeometry x="40" y="898" width="70" height="30" as="geometry" />
        </mxCell>
        <mxCell id="Voh2ad0PcZWmAyjDrMkV-42" value="" style="endArrow=classic;html=1;rounded=0;fontSize=12;" edge="1" parent="1" source="Voh2ad0PcZWmAyjDrMkV-8" target="Voh2ad0PcZWmAyjDrMkV-6">
          <mxGeometry width="50" height="50" relative="1" as="geometry">
            <mxPoint x="35" y="880" as="sourcePoint" />
            <mxPoint x="355" y="880" as="targetPoint" />
            <Array as="points">
              <mxPoint x="235" y="970" />
            </Array>
          </mxGeometry>
        </mxCell>
        <mxCell id="Voh2ad0PcZWmAyjDrMkV-43" value="addAbteilung(ab31)" style="text;html=1;align=center;verticalAlign=middle;resizable=0;points=[];autosize=1;strokeColor=none;fillColor=none;fontSize=12;" vertex="1" parent="1">
          <mxGeometry x="45" y="945" width="130" height="30" as="geometry" />
        </mxCell>
        <mxCell id="Voh2ad0PcZWmAyjDrMkV-44" value="" style="endArrow=open;html=1;rounded=0;dashed=1;endFill=0;fontSize=12;" edge="1" parent="1">
          <mxGeometry width="50" height="50" relative="1" as="geometry">
            <mxPoint x="345" y="1020" as="sourcePoint" />
            <mxPoint x="25" y="1020" as="targetPoint" />
          </mxGeometry>
        </mxCell>
        <mxCell id="Voh2ad0PcZWmAyjDrMkV-45" value="Return()" style="text;html=1;align=center;verticalAlign=middle;resizable=0;points=[];autosize=1;strokeColor=none;fillColor=none;fontSize=12;" vertex="1" parent="1">
          <mxGeometry x="40" y="998" width="70" height="30" as="geometry" />
        </mxCell>
        <mxCell id="Voh2ad0PcZWmAyjDrMkV-46" value="" style="endArrow=classic;html=1;rounded=0;fontSize=12;" edge="1" parent="1">
          <mxGeometry width="50" height="50" relative="1" as="geometry">
            <mxPoint x="24.5" y="1080" as="sourcePoint" />
            <mxPoint x="504.5" y="1080" as="targetPoint" />
          </mxGeometry>
        </mxCell>
        <mxCell id="Voh2ad0PcZWmAyjDrMkV-47" value="addAbteilung(ab40)" style="text;html=1;align=center;verticalAlign=middle;resizable=0;points=[];autosize=1;strokeColor=none;fillColor=none;fontSize=12;" vertex="1" parent="1">
          <mxGeometry x="30" y="1058" width="130" height="30" as="geometry" />
        </mxCell>
        <mxCell id="Voh2ad0PcZWmAyjDrMkV-48" value="" style="endArrow=classic;html=1;rounded=0;fontSize=12;" edge="1" parent="1">
          <mxGeometry width="50" height="50" relative="1" as="geometry">
            <mxPoint x="24.5" y="1200" as="sourcePoint" />
            <mxPoint x="504.5" y="1200" as="targetPoint" />
          </mxGeometry>
        </mxCell>
        <mxCell id="Voh2ad0PcZWmAyjDrMkV-49" value="addAbteilung(ab41)" style="text;html=1;align=center;verticalAlign=middle;resizable=0;points=[];autosize=1;strokeColor=none;fillColor=none;fontSize=12;" vertex="1" parent="1">
          <mxGeometry x="35" y="1178" width="130" height="30" as="geometry" />
        </mxCell>
        <mxCell id="Voh2ad0PcZWmAyjDrMkV-50" value="" style="endArrow=open;html=1;rounded=0;dashed=1;endFill=0;fontSize=12;" edge="1" parent="1">
          <mxGeometry width="50" height="50" relative="1" as="geometry">
            <mxPoint x="505" y="1140" as="sourcePoint" />
            <mxPoint x="25" y="1140" as="targetPoint" />
            <Array as="points" />
          </mxGeometry>
        </mxCell>
        <mxCell id="Voh2ad0PcZWmAyjDrMkV-51" value="Return()" style="text;html=1;align=center;verticalAlign=middle;resizable=0;points=[];autosize=1;strokeColor=none;fillColor=none;fontSize=12;" vertex="1" parent="1">
          <mxGeometry x="43" y="1117" width="70" height="30" as="geometry" />
        </mxCell>
        <mxCell id="Voh2ad0PcZWmAyjDrMkV-52" value="" style="endArrow=open;html=1;rounded=0;dashed=1;endFill=0;fontSize=12;" edge="1" parent="1">
          <mxGeometry width="50" height="50" relative="1" as="geometry">
            <mxPoint x="505" y="1263" as="sourcePoint" />
            <mxPoint x="25" y="1263" as="targetPoint" />
            <Array as="points" />
          </mxGeometry>
        </mxCell>
        <mxCell id="Voh2ad0PcZWmAyjDrMkV-53" value="Return()" style="text;html=1;align=center;verticalAlign=middle;resizable=0;points=[];autosize=1;strokeColor=none;fillColor=none;fontSize=12;" vertex="1" parent="1">
          <mxGeometry x="43" y="1240" width="70" height="30" as="geometry" />
        </mxCell>
        <mxCell id="Voh2ad0PcZWmAyjDrMkV-54" value="" style="endArrow=classic;html=1;rounded=0;fontSize=12;" edge="1" parent="1">
          <mxGeometry width="50" height="50" relative="1" as="geometry">
            <mxPoint x="25" y="1320" as="sourcePoint" />
            <mxPoint x="185" y="1320" as="targetPoint" />
          </mxGeometry>
        </mxCell>
        <mxCell id="Voh2ad0PcZWmAyjDrMkV-55" value="addAbteilung(ab3)" style="text;html=1;align=center;verticalAlign=middle;resizable=0;points=[];autosize=1;strokeColor=none;fillColor=none;fontSize=12;" vertex="1" parent="1">
          <mxGeometry x="40" y="1298" width="120" height="30" as="geometry" />
        </mxCell>
        <mxCell id="Voh2ad0PcZWmAyjDrMkV-56" value="" style="endArrow=open;html=1;rounded=0;dashed=1;endFill=0;fontSize=12;" edge="1" parent="1">
          <mxGeometry width="50" height="50" relative="1" as="geometry">
            <mxPoint x="185" y="1360" as="sourcePoint" />
            <mxPoint x="25" y="1360" as="targetPoint" />
          </mxGeometry>
        </mxCell>
        <mxCell id="Voh2ad0PcZWmAyjDrMkV-57" value="Return()" style="text;html=1;align=center;verticalAlign=middle;resizable=0;points=[];autosize=1;strokeColor=none;fillColor=none;fontSize=12;" vertex="1" parent="1">
          <mxGeometry x="39" y="1337" width="70" height="30" as="geometry" />
        </mxCell>
        <mxCell id="Voh2ad0PcZWmAyjDrMkV-58" value="" style="endArrow=classic;html=1;rounded=0;fontSize=12;" edge="1" parent="1">
          <mxGeometry width="50" height="50" relative="1" as="geometry">
            <mxPoint x="25" y="1402" as="sourcePoint" />
            <mxPoint x="185" y="1402" as="targetPoint" />
          </mxGeometry>
        </mxCell>
        <mxCell id="Voh2ad0PcZWmAyjDrMkV-59" value="addAbteilung(ab4)" style="text;html=1;align=center;verticalAlign=middle;resizable=0;points=[];autosize=1;strokeColor=none;fillColor=none;fontSize=12;" vertex="1" parent="1">
          <mxGeometry x="40" y="1380" width="120" height="30" as="geometry" />
        </mxCell>
        <mxCell id="Voh2ad0PcZWmAyjDrMkV-60" value="" style="endArrow=open;html=1;rounded=0;dashed=1;endFill=0;fontSize=12;" edge="1" parent="1">
          <mxGeometry width="50" height="50" relative="1" as="geometry">
            <mxPoint x="185" y="1442" as="sourcePoint" />
            <mxPoint x="25" y="1442" as="targetPoint" />
          </mxGeometry>
        </mxCell>
        <mxCell id="Voh2ad0PcZWmAyjDrMkV-61" value="Return()" style="text;html=1;align=center;verticalAlign=middle;resizable=0;points=[];autosize=1;strokeColor=none;fillColor=none;fontSize=12;" vertex="1" parent="1">
          <mxGeometry x="39" y="1419" width="70" height="30" as="geometry" />
        </mxCell>
        <mxCell id="Voh2ad0PcZWmAyjDrMkV-62" value="" style="endArrow=classic;html=1;rounded=0;fontSize=12;" edge="1" parent="1">
          <mxGeometry width="50" height="50" relative="1" as="geometry">
            <mxPoint x="25" y="1500" as="sourcePoint" />
            <mxPoint x="185" y="1500" as="targetPoint" />
          </mxGeometry>
        </mxCell>
        <mxCell id="Voh2ad0PcZWmAyjDrMkV-63" value="printName()" style="text;html=1;align=center;verticalAlign=middle;resizable=0;points=[];autosize=1;strokeColor=none;fillColor=none;fontSize=12;" vertex="1" parent="1">
          <mxGeometry x="45" y="1478" width="90" height="30" as="geometry" />
        </mxCell>
        <mxCell id="Voh2ad0PcZWmAyjDrMkV-64" value="" style="endArrow=classic;html=1;rounded=0;fontSize=12;" edge="1" parent="1">
          <mxGeometry width="50" height="50" relative="1" as="geometry">
            <mxPoint x="184.5" y="1540" as="sourcePoint" />
            <mxPoint x="344.5" y="1540" as="targetPoint" />
          </mxGeometry>
        </mxCell>
        <mxCell id="Voh2ad0PcZWmAyjDrMkV-65" value="printName()" style="text;html=1;align=center;verticalAlign=middle;resizable=0;points=[];autosize=1;strokeColor=none;fillColor=none;fontSize=12;" vertex="1" parent="1">
          <mxGeometry x="199" y="1517" width="90" height="30" as="geometry" />
        </mxCell>
        <mxCell id="Voh2ad0PcZWmAyjDrMkV-66" value="" style="endArrow=classic;html=1;rounded=0;fontSize=12;" edge="1" parent="1">
          <mxGeometry width="50" height="50" relative="1" as="geometry">
            <mxPoint x="345" y="1580" as="sourcePoint" />
            <mxPoint x="665" y="1580" as="targetPoint" />
          </mxGeometry>
        </mxCell>
        <mxCell id="Voh2ad0PcZWmAyjDrMkV-67" value="printName()" style="text;html=1;align=center;verticalAlign=middle;resizable=0;points=[];autosize=1;strokeColor=none;fillColor=none;fontSize=12;" vertex="1" parent="1">
          <mxGeometry x="350" y="1558" width="90" height="30" as="geometry" />
        </mxCell>
        <mxCell id="Voh2ad0PcZWmAyjDrMkV-68" value="" style="endArrow=open;html=1;rounded=0;dashed=1;endFill=0;fontSize=12;" edge="1" parent="1" target="Voh2ad0PcZWmAyjDrMkV-6">
          <mxGeometry width="50" height="50" relative="1" as="geometry">
            <mxPoint x="666.53" y="1620.0000000000002" as="sourcePoint" />
            <mxPoint x="354.9999999999998" y="1620.0000000000002" as="targetPoint" />
          </mxGeometry>
        </mxCell>
        <mxCell id="Voh2ad0PcZWmAyjDrMkV-69" value="Return()" style="text;html=1;align=center;verticalAlign=middle;resizable=0;points=[];autosize=1;strokeColor=none;fillColor=none;fontSize=12;" vertex="1" parent="1">
          <mxGeometry x="370" y="1598" width="70" height="30" as="geometry" />
        </mxCell>
        <mxCell id="Voh2ad0PcZWmAyjDrMkV-70" value="" style="endArrow=classic;html=1;rounded=0;fontSize=12;" edge="1" parent="1">
          <mxGeometry width="50" height="50" relative="1" as="geometry">
            <mxPoint x="344.24" y="1676" as="sourcePoint" />
            <mxPoint x="824.5" y="1676" as="targetPoint" />
          </mxGeometry>
        </mxCell>
        <mxCell id="Voh2ad0PcZWmAyjDrMkV-71" value="printName()" style="text;html=1;align=center;verticalAlign=middle;resizable=0;points=[];autosize=1;strokeColor=none;fillColor=none;fontSize=12;" vertex="1" parent="1">
          <mxGeometry x="349.24" y="1654" width="90" height="30" as="geometry" />
        </mxCell>
        <mxCell id="Voh2ad0PcZWmAyjDrMkV-72" value="" style="endArrow=open;html=1;rounded=0;dashed=1;endFill=0;fontSize=12;" edge="1" parent="1">
          <mxGeometry width="50" height="50" relative="1" as="geometry">
            <mxPoint x="824.5" y="1716" as="sourcePoint" />
            <mxPoint x="344.24" y="1716" as="targetPoint" />
          </mxGeometry>
        </mxCell>
        <mxCell id="Voh2ad0PcZWmAyjDrMkV-73" value="Return()" style="text;html=1;align=center;verticalAlign=middle;resizable=0;points=[];autosize=1;strokeColor=none;fillColor=none;fontSize=12;" vertex="1" parent="1">
          <mxGeometry x="369.24" y="1694" width="70" height="30" as="geometry" />
        </mxCell>
        <mxCell id="Voh2ad0PcZWmAyjDrMkV-74" value="" style="endArrow=open;html=1;rounded=0;dashed=1;endFill=0;fontSize=12;" edge="1" parent="1">
          <mxGeometry width="50" height="50" relative="1" as="geometry">
            <mxPoint x="344.5" y="1760" as="sourcePoint" />
            <mxPoint x="184.5" y="1760" as="targetPoint" />
          </mxGeometry>
        </mxCell>
        <mxCell id="Voh2ad0PcZWmAyjDrMkV-75" value="Return()" style="text;html=1;align=center;verticalAlign=middle;resizable=0;points=[];autosize=1;strokeColor=none;fillColor=none;fontSize=12;" vertex="1" parent="1">
          <mxGeometry x="200" y="1738" width="70" height="30" as="geometry" />
        </mxCell>
        <mxCell id="Voh2ad0PcZWmAyjDrMkV-76" value="" style="endArrow=classic;html=1;rounded=0;fontSize=12;" edge="1" parent="1">
          <mxGeometry width="50" height="50" relative="1" as="geometry">
            <mxPoint x="185" y="1820" as="sourcePoint" />
            <mxPoint x="505" y="1820" as="targetPoint" />
          </mxGeometry>
        </mxCell>
        <mxCell id="Voh2ad0PcZWmAyjDrMkV-77" value="printName()" style="text;html=1;align=center;verticalAlign=middle;resizable=0;points=[];autosize=1;strokeColor=none;fillColor=none;fontSize=12;" vertex="1" parent="1">
          <mxGeometry x="199" y="1796" width="90" height="30" as="geometry" />
        </mxCell>
        <mxCell id="Voh2ad0PcZWmAyjDrMkV-78" value="" style="endArrow=classic;html=1;rounded=0;fontSize=12;" edge="1" parent="1">
          <mxGeometry width="50" height="50" relative="1" as="geometry">
            <mxPoint x="504.5" y="1860" as="sourcePoint" />
            <mxPoint x="984.5" y="1860" as="targetPoint" />
          </mxGeometry>
        </mxCell>
        <mxCell id="Voh2ad0PcZWmAyjDrMkV-79" value="printName()" style="text;html=1;align=center;verticalAlign=middle;resizable=0;points=[];autosize=1;strokeColor=none;fillColor=none;fontSize=12;" vertex="1" parent="1">
          <mxGeometry x="525" y="1837" width="90" height="30" as="geometry" />
        </mxCell>
        <mxCell id="Voh2ad0PcZWmAyjDrMkV-80" value="" style="endArrow=open;html=1;rounded=0;dashed=1;endFill=0;fontSize=12;" edge="1" parent="1">
          <mxGeometry width="50" height="50" relative="1" as="geometry">
            <mxPoint x="984.5" y="1910" as="sourcePoint" />
            <mxPoint x="504.5" y="1910" as="targetPoint" />
          </mxGeometry>
        </mxCell>
        <mxCell id="Voh2ad0PcZWmAyjDrMkV-81" value="Return()" style="text;html=1;align=center;verticalAlign=middle;resizable=0;points=[];autosize=1;strokeColor=none;fillColor=none;fontSize=12;" vertex="1" parent="1">
          <mxGeometry x="525" y="1888" width="70" height="30" as="geometry" />
        </mxCell>
        <mxCell id="Voh2ad0PcZWmAyjDrMkV-82" value="" style="endArrow=classic;html=1;rounded=0;fontSize=12;" edge="1" parent="1" target="Voh2ad0PcZWmAyjDrMkV-1">
          <mxGeometry width="50" height="50" relative="1" as="geometry">
            <mxPoint x="505" y="1953" as="sourcePoint" />
            <mxPoint x="985" y="1953" as="targetPoint" />
          </mxGeometry>
        </mxCell>
        <mxCell id="Voh2ad0PcZWmAyjDrMkV-83" value="printName()" style="text;html=1;align=center;verticalAlign=middle;resizable=0;points=[];autosize=1;strokeColor=none;fillColor=none;fontSize=12;" vertex="1" parent="1">
          <mxGeometry x="525.5" y="1930" width="90" height="30" as="geometry" />
        </mxCell>
        <mxCell id="Voh2ad0PcZWmAyjDrMkV-84" value="" style="endArrow=open;html=1;rounded=0;dashed=1;endFill=0;fontSize=12;" edge="1" parent="1" source="Voh2ad0PcZWmAyjDrMkV-1">
          <mxGeometry width="50" height="50" relative="1" as="geometry">
            <mxPoint x="985" y="2003" as="sourcePoint" />
            <mxPoint x="505" y="2003" as="targetPoint" />
          </mxGeometry>
        </mxCell>
        <mxCell id="Voh2ad0PcZWmAyjDrMkV-85" value="Return()" style="text;html=1;align=center;verticalAlign=middle;resizable=0;points=[];autosize=1;strokeColor=none;fillColor=none;fontSize=12;" vertex="1" parent="1">
          <mxGeometry x="525.5" y="1981" width="70" height="30" as="geometry" />
        </mxCell>
        <mxCell id="Voh2ad0PcZWmAyjDrMkV-86" value="" style="endArrow=open;html=1;rounded=0;dashed=1;endFill=0;fontSize=12;" edge="1" parent="1">
          <mxGeometry width="50" height="50" relative="1" as="geometry">
            <mxPoint x="505" y="2040" as="sourcePoint" />
            <mxPoint x="185" y="2040" as="targetPoint" />
          </mxGeometry>
        </mxCell>
        <mxCell id="Voh2ad0PcZWmAyjDrMkV-87" value="Return()" style="text;html=1;align=center;verticalAlign=middle;resizable=0;points=[];autosize=1;strokeColor=none;fillColor=none;fontSize=12;" vertex="1" parent="1">
          <mxGeometry x="209" y="2017" width="70" height="30" as="geometry" />
        </mxCell>
        <mxCell id="Voh2ad0PcZWmAyjDrMkV-89" value="" style="endArrow=open;html=1;rounded=0;dashed=1;endFill=0;fontSize=12;" edge="1" parent="1">
          <mxGeometry width="50" height="50" relative="1" as="geometry">
            <mxPoint x="185" y="2090" as="sourcePoint" />
            <mxPoint x="25" y="2090" as="targetPoint" />
          </mxGeometry>
        </mxCell>
        <mxCell id="Voh2ad0PcZWmAyjDrMkV-90" value="Return()" style="text;html=1;align=center;verticalAlign=middle;resizable=0;points=[];autosize=1;strokeColor=none;fillColor=none;fontSize=12;" vertex="1" parent="1">
          <mxGeometry x="44" y="2068" width="70" height="30" as="geometry" />
        </mxCell>
      </root>
    </mxGraphModel>
  </diagram>
</mxfile>
